<svg width="330" height="86" viewBox="0 0 330 86" fill="none" xmlns="http://www.w3.org/2000/svg">
<path d="M68.739 78.7784L61.0287 80.5644L55.8014 64.6647L24.5683 64.2291L16.7709 85.4432L0 73.8996L32.8013 6.64168L44.9112 5.59622L68.739 78.7784ZM48.9188 43.8862L40.7294 14.6133L29.4907 48.3294L48.9188 43.8862ZM53.2313 56.998L50.7048 49.4184L27.2691 55.212L25.8751 58.7404L53.2313 56.998ZM20.9963 52.337L19.4281 50.3332C17.3372 53.818 15.4786 57.4917 13.8523 61.3541C12.2261 65.2165 10.8321 69.2821 9.6705 73.5511L13.6781 75.25C14.2589 71.2714 15.1592 67.38 16.3789 63.5757C17.6276 59.7423 19.1668 55.9961 20.9963 52.337ZM127.851 58.087C127.851 62.0365 127.067 65.5359 125.499 68.5852C123.931 71.6054 121.593 74.1755 118.485 76.2954C115.814 78.125 112.764 79.4899 109.338 80.3901C105.94 81.2904 102.15 81.7405 97.9683 81.7405C95.2966 81.7405 92.4796 81.5663 89.5175 81.2178C86.5554 80.8693 83.4625 80.303 80.239 79.5189L77.1462 5.59622C78.5402 5.45102 79.9051 5.33485 81.2409 5.24773C82.6058 5.16061 83.9127 5.11705 85.1614 5.11705C88.7624 5.11705 92.1021 5.45102 95.1804 6.11895C98.2587 6.75784 101.076 7.74522 103.631 9.08108C106.884 10.7654 109.309 12.8418 110.906 15.3103C112.532 17.7787 113.345 20.6392 113.345 23.8918C113.345 25.3147 113.171 26.7668 112.823 28.2478C112.474 29.6999 111.937 31.1664 111.211 32.6475C116.177 34.7674 120.184 38.1942 123.234 42.9278C126.312 47.6324 127.851 52.6855 127.851 58.087ZM101.148 34.5206L99.2316 12.1739C98.825 11.7673 98.1425 11.3753 97.1842 10.9978C96.2549 10.5912 95.0497 10.1991 93.5686 9.82162L90.3451 41.0983C92.7846 40.3142 94.9045 39.3704 96.705 38.2668C98.5346 37.1633 100.016 35.9145 101.148 34.5206ZM112.518 51.0302C112.518 48.4165 112.024 46.0352 111.037 43.8862C110.078 41.7372 108.626 39.7915 106.68 38.049C104.357 40.1109 101.802 41.8243 99.0138 43.1892C96.2259 44.5541 93.1911 45.556 89.9095 46.1949L87.3395 73.8996C90.6791 73.7834 93.7865 73.1736 96.6615 72.07C99.5365 70.9665 102.208 69.3983 104.677 67.3655C107.319 65.1874 109.28 62.7335 110.557 60.0037C111.864 57.2739 112.518 54.2827 112.518 51.0302ZM122.362 57.5643C122.362 56.5479 122.101 55.7783 121.578 55.2556C121.085 54.7328 120.315 54.4715 119.27 54.4715C118.224 54.4715 117.44 54.7328 116.917 55.2556C116.395 55.7783 116.133 56.5479 116.133 57.5643C116.133 58.6097 116.395 59.3938 116.917 59.9166C117.44 60.4103 118.224 60.6571 119.27 60.6571C120.315 60.6571 121.085 60.4103 121.578 59.9166C122.101 59.3938 122.362 58.6097 122.362 57.5643ZM119.139 67.7575C119.139 66.683 118.747 65.7537 117.963 64.9696C117.208 64.1855 116.264 63.7935 115.131 63.7935C113.999 63.7935 113.04 64.1855 112.256 64.9696C111.501 65.7537 111.124 66.683 111.124 67.7575C111.124 68.8901 111.501 69.8484 112.256 70.6325C113.04 71.3876 113.999 71.7651 115.131 71.7651C116.264 71.7651 117.208 71.3876 117.963 70.6325C118.747 69.8484 119.139 68.8901 119.139 67.7575ZM109.381 74.4223C109.381 73.4059 109.12 72.6363 108.597 72.1136C108.074 71.5909 107.29 71.3295 106.245 71.3295C105.228 71.3295 104.459 71.5909 103.936 72.1136C103.413 72.6363 103.152 73.4059 103.152 74.4223C103.152 75.4678 103.413 76.2519 103.936 76.7746C104.459 77.2973 105.228 77.5587 106.245 77.5587C107.29 77.5587 108.074 77.2973 108.597 76.7746C109.12 76.2519 109.381 75.4678 109.381 74.4223ZM106.245 47.9809C103.602 51.1173 101.221 54.3843 99.1009 57.7821C96.9809 61.1798 95.1078 64.7083 93.4815 68.3674L90.9114 68.4545C92.2473 64.6211 93.8736 60.8313 95.7903 57.0851C97.736 53.3098 99.9721 49.5781 102.499 45.89L106.245 47.9809ZM195.893 43.7555C195.893 48.3439 195.24 52.6564 193.933 56.6931C192.626 60.7297 190.637 64.505 187.965 68.0189C185.061 71.8522 181.779 74.7272 178.12 76.6439C174.49 78.5606 170.439 79.5189 165.967 79.5189C161.553 79.5189 157.516 78.5606 153.857 76.6439C150.227 74.7272 146.96 71.8522 144.056 68.0189C141.413 64.534 139.438 60.7587 138.131 56.6931C136.825 52.6274 136.171 48.3149 136.171 43.7555C136.171 39.1961 136.81 34.9272 138.088 30.9486C139.395 26.9701 141.326 23.2964 143.881 19.9277C146.698 16.2396 149.922 13.4807 153.552 11.6512C157.182 9.79258 161.219 8.86328 165.662 8.86328C170.105 8.86328 174.156 9.79258 177.815 11.6512C181.503 13.4807 184.814 16.2251 187.747 19.8842C190.448 23.2819 192.481 26.9701 193.846 30.9486C195.211 34.9272 195.893 39.1961 195.893 43.7555ZM186.484 47.8502C186.484 47.4727 186.484 47.0952 186.484 46.7176C186.484 46.3111 186.469 45.89 186.44 45.4544L179.645 45.9771L178.861 42.5358L185.83 41.4468C185.453 39.5301 184.916 37.7441 184.219 36.0888C183.522 34.4044 182.665 32.8508 181.649 31.4278L175.855 38.354L173.329 36.3066L178.425 27.8558C176.741 26.4038 174.882 25.3293 172.849 24.6323C170.817 23.9353 168.566 23.6014 166.097 23.6304L168.755 34.085L165.662 35.174L161.959 24.5452C159.781 25.3293 157.792 26.4909 155.991 28.03C154.191 29.5401 152.55 31.4133 151.069 33.6494L158.169 41.5339L155.599 44.5396L148.934 37.6134C148.005 39.7915 147.323 41.8969 146.887 43.9297C146.451 45.9626 146.263 47.9083 146.321 49.7669L146.364 51.4222L154.075 51.9449V55.7783L146.713 55.3427C146.916 56.7657 147.25 58.2032 147.715 59.6552C148.208 61.1072 148.818 62.5593 149.544 64.0113L155.512 58.6533L157.952 60.8749L151.853 67.3219C153.102 68.9191 154.467 70.2405 155.948 71.2859C157.458 72.3314 159.099 73.13 160.87 73.6818L161.872 65.1003L164.965 65.5359L164.747 74.3352H165.226C167.056 74.3352 168.842 74.0593 170.584 73.5075C172.356 72.9267 174.084 72.0265 175.768 70.8068L170.758 61.0927L173.721 59.3503L178.861 67.9753C179.935 66.7847 180.879 65.5649 181.692 64.3162C182.505 63.0675 183.188 61.7752 183.74 60.4393L176.508 54.1665L178.425 52.2499L185.177 56.2139C185.613 54.9942 185.932 53.6874 186.135 52.2934C186.368 50.8995 186.484 49.4184 186.484 47.8502ZM260.668 49.8976C260.668 60.207 258.33 67.9318 253.655 73.0719C249.008 78.2121 241.995 80.7822 232.615 80.7822C228.055 80.7822 224.12 80.2014 220.81 79.0398C217.499 77.8491 214.813 76.0776 212.751 73.7253C210.834 71.5473 209.397 68.7594 208.439 65.3617C207.48 61.9639 207.001 57.9708 207.001 53.3824C207.001 49.5781 207.437 43.9007 208.308 36.3502C209.208 28.7706 209.658 23.0786 209.658 19.2743C209.658 16.8059 209.469 14.6423 209.092 12.7838C208.743 10.9252 208.206 9.35697 207.48 8.07918L211.183 6.42387C212.519 9.06656 213.579 12.0723 214.363 15.441C215.176 18.8097 215.728 22.5269 216.018 26.5925C216.105 27.8703 216.163 30.2662 216.192 33.7801C216.25 37.294 216.279 41.9259 216.279 47.676C216.279 51.2189 216.367 54.2391 216.541 56.7366C216.744 59.2051 217.035 61.1363 217.412 62.5302C218.225 65.4343 219.474 67.6123 221.158 69.0643C222.843 70.5164 224.963 71.2424 227.518 71.2424C230.48 71.2424 232.978 70.7342 235.011 69.7177C237.073 68.7013 238.67 67.1622 239.802 65.1003C240.615 63.6192 241.225 61.7461 241.632 59.481C242.067 57.2158 242.285 54.5441 242.285 51.4658C242.285 50.885 242.271 50.188 242.242 49.3748C242.213 48.5617 242.184 47.6469 242.155 46.6305C242.126 45.4689 242.097 44.5106 242.067 43.7555C242.067 42.9714 242.067 42.3761 242.067 41.9695L248.732 41.4468L248.297 36.3066L241.98 36.5244L241.763 31.6456L247.992 31.3407L247.818 26.2876H241.763L241.545 21.191L247.818 21.6266V16.9656L241.545 16.3993L241.327 11.2156L259.405 13.0016C259.811 24.8501 260.116 33.8527 260.319 40.0093C260.552 46.1659 260.668 49.462 260.668 49.8976ZM233.268 44.6267C233.268 46.1368 232.731 47.4291 231.656 48.5036C230.611 49.5781 229.348 50.1154 227.867 50.1154C226.357 50.1154 225.079 49.5781 224.033 48.5036C223.017 47.4001 222.509 46.1078 222.509 44.6267C222.509 43.1747 223.017 41.9114 224.033 40.8369C225.079 39.7624 226.357 39.2252 227.867 39.2252C229.348 39.2252 230.611 39.7624 231.656 40.8369C232.731 41.8824 233.268 43.1456 233.268 44.6267ZM329.189 8.7326L328.231 15.6588C326.314 15.3103 324.412 15.0489 322.524 14.8747C320.637 14.7004 318.793 14.6133 316.992 14.6133C314.698 14.6133 312.375 14.7585 310.022 15.0489C307.699 15.3393 305.347 15.7604 302.966 16.3122L307.104 80.7822L287.414 78.2121L292.293 16.8349L289.331 16.8785C286.166 16.9366 283.378 16.7913 280.967 16.4429C278.586 16.0944 276.611 15.5281 275.043 14.744C272.865 13.6404 271.239 12.1158 270.164 10.1701C269.119 8.22439 268.596 5.81402 268.596 2.93901V1.84999L271.515 0.848088C271.631 4.10063 272.85 6.54004 275.174 8.16631C277.526 9.76354 280.953 10.5622 285.454 10.5622C289.258 10.5622 294.907 9.99586 302.399 8.86328C309.921 7.7307 315.584 7.16441 319.388 7.16441C321.392 7.16441 323.221 7.30961 324.877 7.60002C326.532 7.86138 327.969 8.23891 329.189 8.7326ZM300.439 36.0888C300.439 35.0433 300.178 34.2592 299.655 33.7365C299.161 33.2138 298.392 32.9524 297.346 32.9524C296.301 32.9524 295.502 33.2138 294.95 33.7365C294.428 34.2592 294.166 35.0433 294.166 36.0888C294.166 37.1633 294.428 37.9619 294.95 38.4846C295.502 38.9783 296.301 39.2252 297.346 39.2252C298.392 39.2252 299.161 38.9783 299.655 38.4846C300.178 37.9619 300.439 37.1633 300.439 36.0888ZM301.18 49.0699C301.18 47.9954 300.787 47.0661 300.003 46.282C299.248 45.4689 298.319 45.0623 297.215 45.0623C296.112 45.0623 295.168 45.4689 294.384 46.282C293.6 47.0661 293.208 47.9954 293.208 49.0699C293.208 50.2025 293.6 51.1608 294.384 51.9449C295.168 52.729 296.112 53.1211 297.215 53.1211C298.319 53.1211 299.248 52.729 300.003 51.9449C300.787 51.1608 301.18 50.2025 301.18 49.0699ZM300.221 62.748C300.221 61.7316 299.96 60.962 299.437 60.4393C298.943 59.9166 298.174 59.6552 297.128 59.6552C296.083 59.6552 295.284 59.9166 294.733 60.4393C294.21 60.962 293.948 61.7316 293.948 62.748C293.948 63.7935 294.21 64.5776 294.733 65.1003C295.284 65.594 296.083 65.8408 297.128 65.8408C298.174 65.8408 298.943 65.594 299.437 65.1003C299.96 64.5776 300.221 63.7935 300.221 62.748Z" fill="white"/>
</svg>
